<?xml version="1.0" encoding="UTF-8"?>
<svg version="1.1" xmlns="http://www.w3.org/2000/svg" width="1500" height="1500">
<path d="M0 0 C495 0 990 0 1500 0 C1500 495 1500 990 1500 1500 C1005 1500 510 1500 0 1500 C0 1005 0 510 0 0 Z " fill="#000000" transform="translate(0,0)"/>
<path d="M0 0 C32.34 0 64.68 0 98 0 C99.5366562 3.07331239 100.30568846 4.80093638 100.89453125 8 C101.042854 8.79035645 101.19117676 9.58071289 101.34399414 10.39501953 C101.49860107 11.25466309 101.65320801 12.11430664 101.8125 13 C101.98064209 13.90991699 102.14878418 14.81983398 102.32202148 15.75732422 C102.8882989 18.83698833 103.44443621 21.91838614 104 25 C104.20560547 26.12825195 104.41121094 27.25650391 104.62304688 28.41894531 C106.73524479 40.01035363 108.82203634 51.596408 110.5625 63.25 C111.37913968 68.65881617 112.40956384 73.89199099 113.8125 79.1875 C116.86359318 90.78165409 118.83878307 102.62182663 120.9798584 114.41105652 C121.63891996 118.0397432 122.31404664 121.66445879 123.015625 125.28515625 C124.77931239 134.52147037 125.63385992 143.61923855 126 153 C126.66 153 127.32 153 128 153 C128.50610903 156.22823979 129.00379907 159.45772365 129.5 162.6875 C129.64308594 163.59951172 129.78617188 164.51152344 129.93359375 165.45117188 C130.06894531 166.33740234 130.20429687 167.22363281 130.34375 168.13671875 C130.46943359 168.94842529 130.59511719 169.76013184 130.72460938 170.59643555 C131.00977723 173.08533405 131.04674739 175.49706689 131 178 C131.66 178 132.32 178 133 178 C133.17390259 179.07483643 133.17390259 179.07483643 133.35131836 180.17138672 C133.87667357 183.40648264 134.40702266 186.64074021 134.9375 189.875 C135.21110352 191.56689453 135.21110352 191.56689453 135.49023438 193.29296875 C135.66748047 194.36933594 135.84472656 195.44570313 136.02734375 196.5546875 C136.18968506 197.54968262 136.35202637 198.54467773 136.51928711 199.56982422 C136.88767373 201.99630522 136.88767373 201.99630522 138 204 C138.46783485 206.7780381 138.89892952 209.5531672 139.30859375 212.33984375 C140.90617836 222.81618831 142.94466815 233.18091371 145.0625 243.5625 C145.41768832 245.31828444 145.77250697 247.07414371 146.12695312 248.83007812 C147.84795598 257.36324482 147.84795598 257.36324482 149.60083008 265.88989258 C151.29369857 274.09864343 152.5717269 282.38223756 153.89819336 290.65649414 C154.22155797 292.66872435 154.54987081 294.68009674 154.87890625 296.69140625 C155.0704126 297.87935791 155.26191895 299.06730957 155.45922852 300.29125977 C155.72061738 302.90561358 155.72061738 302.90561358 157 304 C159.143397 296.08007209 160.40709057 288.25721643 161.375 280.125 C162.44248113 271.34468231 163.99171464 262.80702274 165.95263672 254.18554688 C167.80297473 246.02928974 169.43141107 237.83969698 171 229.625 C172.84188018 219.98850926 174.72805592 210.36338239 176.6875 200.75 C178.32911829 192.67924488 179.801526 184.60877685 180.92456055 176.44824219 C181.50148259 172.44290145 182.34444513 168.6488745 183.46484375 164.7578125 C185.18555132 158.65183731 186.08875592 152.52848244 186.9375 146.25 C189.70163252 126.14496438 193.4556091 106.23204954 197.46435547 86.34204102 C198.13491713 83.01326982 198.8001646 79.68346591 199.46484375 76.35351562 C199.89552648 74.20566761 200.32650479 72.05787885 200.7578125 69.91015625 C201.05161301 68.43978661 201.05161301 68.43978661 201.35134888 66.93971252 C202.18079007 62.834753 203.03774886 58.75478161 204.08422852 54.69921875 C204.89681147 51.41682554 205.46832168 48.25254286 205.89453125 44.90234375 C206.12172852 43.20174805 206.12172852 43.20174805 206.35351562 41.46679688 C206.6518174 39.17304666 206.94630246 36.87879572 207.23632812 34.58398438 C208.82346202 22.80231408 211.44151195 11.76904502 214 0 C246.01 0 278.02 0 311 0 C311 130.02 311 260.04 311 394 C290.54 394 270.08 394 249 394 C247.31938196 392.31938196 247.86772376 390.24827814 247.8613348 387.94186306 C247.85586036 386.83911901 247.85038591 385.73637496 247.84474558 384.60021442 C247.84376747 383.3735876 247.84278936 382.14696078 247.84178162 380.88316345 C247.83684364 379.59190648 247.83190566 378.30064951 247.82681805 376.97026354 C247.81318336 373.36962878 247.80580325 369.76900351 247.79939139 366.16834962 C247.79141074 362.29170066 247.77770499 358.41507159 247.76467896 354.53843689 C247.74288293 347.81641701 247.72474993 341.09439515 247.70907402 334.37235832 C247.68640377 324.65330838 247.65825706 314.93428045 247.62875474 305.21524913 C247.58104385 289.44844076 247.53778918 273.68162341 247.49731445 257.91479492 C247.45797729 242.59480083 247.41655536 227.27481473 247.37231445 211.95483398 C247.36959018 211.01120611 247.36686591 210.06757823 247.36405908 209.09535556 C247.3503799 204.36165958 247.33665957 199.62796372 247.32291877 194.89426792 C247.20889908 155.59619521 247.10210192 116.29810537 247 77 C246.35046038 80.36313166 245.70435357 83.72691419 245.05883789 87.09082031 C244.8759446 88.03756622 244.6930513 88.98431213 244.50461578 89.95974731 C243.07600458 97.41832421 241.9920982 104.86953587 241.13476562 112.4140625 C240.62735049 116.50984454 240.00986339 120.23306808 238.5625 124.10546875 C235.86753859 131.64538849 235.31336874 139.85653121 234.27319336 147.76098633 C233.02537023 157.14323327 231.37610047 166.20687416 228.93139648 175.35620117 C227.6334633 180.43396074 226.69719327 185.55794404 225.7890625 190.71875 C225.22734563 193.83385871 224.60858807 196.93287085 223.9609375 200.03125 C222.27369125 208.12017391 220.76655973 215.96592547 220.26953125 224.23046875 C219.85904557 228.4483578 218.81558467 232.47215923 217.80859375 236.58203125 C216.84317659 240.6629009 216.08039583 244.76503314 215.33422852 248.89086914 C214.49083662 253.49855255 213.57452126 258.0864129 212.6171875 262.671875 C209.44229963 277.96399838 206.84139427 293.14083036 204.859375 308.63671875 C203.81490234 316.6303039 202.65858749 324.37007006 200 332 C199.50252412 334.36711052 199.04762453 336.74338648 198.625 339.125 C197.80159999 343.71598078 196.951373 348.29535489 195.98828125 352.859375 C194.09671114 361.85754231 192.49533073 370.74697972 191.68334961 379.91357422 C191.23395678 384.78170958 190.22384961 389.26613737 189 394 C180.4119428 394.02312635 171.82389851 394.04091658 163.23581791 394.05181217 C159.248428 394.05704036 155.26105933 394.06413684 151.27368164 394.07543945 C147.42874886 394.08627061 143.58383655 394.09227732 139.73888969 394.09487724 C138.26881017 394.09673108 136.79873182 394.10035091 135.32866096 394.10573006 C133.27645533 394.11294355 131.22433533 394.11399081 129.17211914 394.11352539 C128.00185684 394.115746 126.83159454 394.11796661 125.62586975 394.12025452 C123 394 123 394 122 393 C121.60481195 390.96132248 121.26557401 388.9117636 120.94921875 386.859375 C120.7473999 385.571521 120.54558105 384.28366699 120.33764648 382.95678711 C120.23169159 382.27051239 120.12573669 381.58423767 120.01657104 380.87716675 C118.46860641 370.870881 116.87391605 360.87711872 114.9375 350.9375 C114.70051392 349.71873169 114.70051392 349.71873169 114.45874023 348.4753418 C114.14023533 346.84249609 113.82114476 345.20976451 113.50146484 343.57714844 C112.56087954 338.74325434 111.65011577 333.90407423 110.75 329.0625 C110.57460693 328.1439624 110.39921387 327.2254248 110.21850586 326.27905273 C109.38826981 321.78790695 108.78820456 317.59142247 109 313 C108.34 313 107.68 313 107 313 C106.89977539 312.38294189 106.79955078 311.76588379 106.69628906 311.13012695 C104.88498492 300.01894661 103.03099279 288.92510259 100.875 277.875 C99.54962555 271.07132698 98.41255607 264.28193863 97.48828125 257.41015625 C96.85113115 252.96029993 96.05251757 248.54399915 95.25024414 244.12182617 C93.82216421 236.16971339 92.58655924 228.18696315 91.35791016 220.2019043 C91.19597168 219.16718994 91.0340332 218.13247559 90.8671875 217.06640625 C90.72394043 216.13771729 90.58069336 215.20902832 90.43310547 214.25219727 C90.10056685 211.97591681 90.10056685 211.97591681 89 210 C88.84311235 208.18998135 88.72407967 206.37660156 88.625 204.5625 C88.05148848 197.07100577 86.28538721 190.28449346 83.55078125 183.296875 C80.79446383 175.06293173 80.30120171 166.1083086 79.27319336 157.52075195 C77.80771094 145.41667928 75.86748246 133.60244739 72 122 C71.80287777 120.67866504 71.63898239 119.35214633 71.5 118.0234375 C71.4175 117.270625 71.335 116.5178125 71.25 115.7421875 C71.08251733 114.15633597 70.91585853 112.57039722 70.75 110.984375 C70.66270781 107.17588631 70.66270781 107.17588631 69 104 C68.72702107 102.5612163 68.50924492 101.111855 68.31640625 99.66015625 C68.13174805 98.31147461 68.13174805 98.31147461 67.94335938 96.93554688 C67.75483398 95.51338867 67.75483398 95.51338867 67.5625 94.0625 C67.3167017 92.21966301 67.06801014 90.37720958 66.81640625 88.53515625 C66.70756104 87.714104 66.59871582 86.89305176 66.48657227 86.04711914 C65.78845051 81.67518855 64.86826864 77.34134318 64 73 C63.67 178.93 63.34 284.86 63 394 C42.21 394 21.42 394 0 394 C0 263.98 0 133.96 0 0 Z " fill="#3264C9" transform="translate(805,775)"/>
<path d="M0 0 C1.07461739 0.00539291 1.07461739 0.00539291 2.17094421 0.01089478 C2.92211517 0.01074875 3.67328613 0.01060272 4.44721985 0.01045227 C6.94166404 0.01115153 9.43603448 0.01894452 11.9304657 0.02676392 C13.65539509 0.02862805 15.38032501 0.03005197 17.10525513 0.03105164 C21.65418448 0.03487719 26.20308211 0.04470779 30.7519989 0.05575562 C35.39025951 0.06596893 40.02852522 0.07054908 44.66679382 0.07559204 C53.77422967 0.08633003 62.88164192 0.1034069 71.98905945 0.12442017 C73.24083324 3.19017566 74.28630483 6.06186577 74.92655945 9.31192017 C76.38819961 16.16689921 78.43089605 22.7270799 80.98905945 29.24942017 C82.68025024 33.76777142 83.63492451 38.25579521 84.42655945 42.99942017 C85.48235559 49.28452119 87.17634919 54.88655178 89.70780945 60.76895142 C91.14799182 64.54064855 92.16554679 68.33670844 93.19902039 72.23599243 C94.43862762 76.76806695 95.90817546 81.22063988 97.36405945 85.68692017 C101.31937338 97.98395027 105.20485845 110.3112652 107.5320282 123.03457642 C108.29951744 126.54403575 109.66391611 129.79524233 110.98905945 133.12442017 C112.99019338 138.41651844 114.32635713 143.2121313 114.58280945 148.88613892 C114.91100801 151.29857485 114.91100801 151.29857485 116.3992157 153.91348267 C118.15839415 157.46641801 119.06611687 160.97270294 119.92655945 164.81192017 C121.27511465 170.51138829 122.8942716 175.93702453 124.98124695 181.41738892 C127.94743764 189.38471508 130.25681194 197.36988351 131.49687195 205.78457642 C132.00413965 208.19611095 132.88737066 209.93375438 133.98905945 212.12442017 C134.4043662 213.86529503 134.77322571 215.61744624 135.11405945 217.37442017 C136.83910692 225.28088775 139.50384094 232.8376421 142.20829773 240.45742798 C144.05119719 245.77211782 145.28138685 250.56162373 145.71098328 256.16519165 C146.13399914 259.1456151 147.58169332 261.48957681 148.98905945 264.12442017 C149.70189565 266.69117257 150.34513924 269.21767562 150.92655945 271.81192017 C152.27511465 277.51138829 153.8942716 282.93702453 155.98124695 288.41738892 C158.90932763 296.2823498 161.22212395 304.19273803 162.49687195 312.49160767 C163.72111019 319.04031063 166.04554868 325.24765454 168.21342468 331.53018188 C171.68977183 341.65069664 174.89503156 351.4850305 176.4539032 362.08535767 C176.97041816 365.01855941 177.80627113 367.40353953 178.98905945 370.12442017 C179.45194318 371.71145012 179.91197129 373.29945296 180.34843445 374.89395142 C181.52893016 379.00409199 182.87384586 383.06585533 184.18437195 387.13613892 C184.98905945 390.12442017 184.98905945 390.12442017 184.98905945 394.12442017 C160.89905945 394.12442017 136.80905945 394.12442017 111.98905945 394.12442017 C108.65572611 380.79108683 105.32239278 367.4577535 101.98905945 354.12442017 C101.65905945 353.79442017 101.32905945 353.46442017 100.98905945 353.12442017 C100.67353085 351.73514965 100.40374526 350.3354471 100.15312195 348.93301392 C98.63461123 341.02069974 96.45557577 333.27794065 94.37968445 325.49746704 C94.07288757 324.33408813 93.7660907 323.17070923 93.44999695 321.97207642 C93.16946472 320.92028198 92.8889325 319.86848755 92.59989929 318.78482056 C91.98905945 316.12442017 91.98905945 316.12442017 91.98905945 313.12442017 C52.71905945 313.12442017 13.44905945 313.12442017 -27.01094055 313.12442017 C-28.33094055 318.73442017 -29.65094055 324.34442017 -31.01094055 330.12442017 C-31.94075622 333.45179717 -32.88626135 336.75721006 -33.88594055 340.06192017 C-37.48691966 352.28211499 -40.25271453 364.691709 -43.01094055 377.12442017 C-43.67094055 377.12442017 -44.33094055 377.12442017 -45.01094055 377.12442017 C-45.11406555 378.09379517 -45.21719055 379.06317017 -45.32344055 380.06192017 C-46.01094055 384.12442017 -46.01094055 384.12442017 -49.01094055 393.12442017 C-71.78094055 393.12442017 -94.55094055 393.12442017 -118.01094055 393.12442017 C-117.31457731 387.55351419 -116.58315501 383.34027032 -115.01094055 378.12442017 C-114.66587369 376.74516171 -114.33049135 375.36345616 -114.00312805 373.97988892 C-110.2556487 358.26591104 -105.7223665 342.73362991 -100.39375305 327.47988892 C-99.36603798 324.44325594 -98.64800978 321.47234566 -98.0695343 318.31973267 C-96.95303688 312.35816646 -95.03708148 306.72820745 -93.07344055 300.99942017 C-92.55233704 299.45061157 -92.55233704 299.45061157 -92.02070618 297.87051392 C-90.56690147 293.57207063 -89.09609374 289.30201535 -87.40937805 285.08926392 C-85.17835044 279.22743705 -84.20544339 273.01023755 -82.99336243 266.87637329 C-81.77923858 260.98649742 -80.15418628 255.51838775 -78.01704407 249.90005493 C-76.27797003 245.10230372 -75.01917274 240.17537322 -73.69844055 235.24942017 C-71.47763534 227.11433648 -69.07361199 219.0959747 -66.32344055 211.12442017 C-63.68599198 203.45474001 -61.59544824 195.80218376 -59.84687805 187.88613892 C-56.96818521 174.93202112 -56.96818521 174.93202112 -54.01094055 169.12442017 C-53.33835389 166.79278639 -52.67246611 164.45921626 -52.01094055 162.12442017 C-51.51594055 160.90754517 -51.02094055 159.69067017 -50.51094055 158.43692017 C-49.26190909 155.20666638 -48.66663954 152.1781501 -48.19844055 148.74942017 C-47.28216697 142.65620084 -45.42923078 137.13741051 -43.40107727 131.34854126 C-41.07915102 124.61114868 -39.33065186 117.79469755 -37.7480011 110.84902954 C-36.93072167 107.35950591 -36.13282424 104.36754941 -34.51875305 101.14785767 C-32.48579696 97.07141203 -31.59393487 92.92100795 -30.57344055 88.49942017 C-29.23183543 82.8939868 -27.87055838 77.37787575 -25.94844055 71.93692017 C-24.01568285 66.45038218 -22.72929141 60.89251933 -21.44917297 55.22744751 C-20.27043907 50.06408691 -18.82280455 45.10704615 -17.01094055 40.12442017 C-16.35094055 40.12442017 -15.69094055 40.12442017 -15.01094055 40.12442017 C-14.8563739 39.07194092 -14.8563739 39.07194092 -14.69868469 37.99819946 C-13.42763521 29.83479242 -11.5585366 21.92047944 -9.44844055 13.93692017 C-9.13197571 12.71166626 -8.81551086 11.48641235 -8.48945618 10.22402954 C-5.81887586 0.0123201 -5.81887586 0.0123201 0 0 Z " fill="#979797" transform="translate(477.0109405517578,351.8755798339844)"/>
<path d="M0 0 C78.21 0 156.42 0 237 0 C237 23.1 237 46.2 237 70 C180.57 70 124.14 70 66 70 C66 97.39 66 124.78 66 153 C117.81 153 169.62 153 223 153 C223 175.77 223 198.54 223 222 C171.52 222 120.04 222 67 222 C67 255 67 288 67 322 C125.41 322 183.82 322 244 322 C244 345.76 244 369.52 244 394 C213.06025717 394.02202648 182.12052187 394.04049791 151.18077365 394.05106533 C147.53189271 394.05231611 143.88301178 394.05361042 140.23413086 394.05493164 C139.14444524 394.05532511 139.14444524 394.05532511 138.03274577 394.05572652 C126.25464082 394.06008332 114.47654072 394.06797093 102.69843865 394.0771528 C90.6219916 394.08648905 78.54554711 394.09205555 66.4690966 394.09408849 C59.01129986 394.09546378 51.55351685 394.09981467 44.09572434 394.10791647 C38.38670022 394.11380429 32.67768499 394.11445903 26.96865845 394.11310768 C24.61958163 394.1133842 22.27050432 394.11539183 19.92143059 394.11920547 C16.72942551 394.12413609 13.53748054 394.12300064 10.34547424 394.12025452 C9.40288665 394.12316736 8.46029905 394.1260802 7.4891482 394.12908131 C1.11412121 394.11412121 1.11412121 394.11412121 0 393 C-0.09793532 390.9150043 -0.12371194 388.82661994 -0.12304783 386.73932552 C-0.12420167 386.07464082 -0.12535552 385.40995612 -0.12654433 384.72512946 C-0.12921744 382.47004381 -0.12468318 380.21502779 -0.12025452 377.95994568 C-0.12069008 376.33803591 -0.1215647 374.71612621 -0.12284368 373.09421688 C-0.12509163 368.61564883 -0.12106329 364.13710445 -0.11606562 359.65853941 C-0.11176558 354.83710772 -0.11320723 350.01567746 -0.1139679 345.19424438 C-0.11449342 336.83358377 -0.1113437 328.47293092 -0.10573006 320.11227226 C-0.09761883 308.0240155 -0.09500023 295.93576251 -0.09374207 283.84750331 C-0.09155095 264.23728197 -0.08488926 244.62706479 -0.07543945 225.0168457 C-0.06626687 205.96215841 -0.05919675 186.90747225 -0.05493164 167.8527832 C-0.05466364 166.66717251 -0.05439565 165.48156182 -0.05411953 164.26002353 C-0.05204023 154.98840223 -0.05008326 145.7167809 -0.04816496 136.44515955 C-0.03872345 90.9634359 -0.01860701 45.48172262 0 0 Z " fill="#FBFBFB" transform="translate(964,352)"/>
<path d="M0 0 C1.91171991 0.57213004 3.84129659 1.08382253 5.77246094 1.58642578 C26.3557754 7.19776945 43.2208699 19.84255432 58.15527344 34.64501953 C58.97898437 35.45583984 59.80269531 36.26666016 60.65136719 37.10205078 C71.51062025 48.45062893 77.67677684 61.77419762 82.15527344 76.64501953 C82.38730469 77.41346191 82.61933594 78.1819043 82.85839844 78.97363281 C84.40460398 84.16952769 85.82741224 89.38928918 87.15527344 94.64501953 C87.4040625 95.61697266 87.65285156 96.58892578 87.90917969 97.59033203 C89.84358858 106.43720909 89.15527344 114.20301659 89.15527344 123.64501953 C68.03527344 123.64501953 46.91527344 123.64501953 25.15527344 123.64501953 C24.16527344 117.70501953 23.17527344 111.76501953 22.15527344 105.64501953 C20.00318142 100.81086929 20.00318142 100.81086929 17.55761719 96.12548828 C16.15527344 93.64501953 16.15527344 93.64501953 15.22558594 91.12939453 C10.93715044 81.17521578 0.64924782 74.36616321 -9.03222656 70.39501953 C-10.63248824 69.80105738 -12.23623251 69.21631225 -13.84472656 68.64501953 C-14.81410156 68.27376953 -15.78347656 67.90251953 -16.78222656 67.52001953 C-35.8445768 62.07363375 -57.98552887 62.35713601 -75.84472656 71.45751953 C-86.62907224 77.9022186 -93.67661255 85.52837308 -97.11035156 97.71533203 C-99.38021962 109.86154088 -99.60929223 122.90420916 -92.84472656 133.64501953 C-82.6149129 148.52685253 -64.12343618 152.89182285 -47.56542969 157.27172852 C-40.82271462 159.06640005 -34.17097614 161.06112626 -27.53222656 163.20751953 C-10.33933871 168.83342549 -10.33933871 168.83342549 7.20214844 173.19189453 C10.08179637 173.85997285 12.83809143 174.82265216 15.62792969 175.79345703 C19.72922361 177.17534587 23.88919295 178.36558203 28.04199219 179.58251953 C31.26520674 180.68253755 34.12776288 182.09045698 37.15527344 183.64501953 C38.28320312 184.12583984 39.41113281 184.60666016 40.57324219 185.10205078 C51.09489596 189.63427896 60.50559995 195.08422338 69.15527344 202.64501953 C69.86167969 203.20833984 70.56808594 203.77166016 71.29589844 204.35205078 C80.63594439 211.96311876 86.63026414 222.62760558 91.15527344 233.64501953 C91.62578125 234.63501953 92.09628906 235.62501953 92.58105469 236.64501953 C94.71546296 241.62069839 95.68476184 246.86357165 96.78027344 252.14501953 C96.99683594 253.15177734 97.21339844 254.15853516 97.43652344 255.19580078 C103.03819023 281.5789598 102.05876973 312.93075113 90.08105469 337.67236328 C89.16011355 339.63470621 88.46766828 341.59087471 87.78027344 343.64501953 C85.99263913 348.49170721 83.14197296 352.46364021 80.15527344 356.64501953 C79.56746094 357.50095703 78.97964844 358.35689453 78.37402344 359.23876953 C66.71915284 375.86128989 51.35895278 391.25322224 32.05761719 398.53955078 C29.21598213 399.6218963 26.41605987 400.7878421 23.61108398 401.96118164 C13.99819721 405.93665211 5.57721715 407.98121126 -4.84472656 407.64501953 C-4.84472656 408.30501953 -4.84472656 408.96501953 -4.84472656 409.64501953 C-81.08227589 410.60880054 -81.08227589 410.60880054 -100.84472656 395.64501953 C-102.73388662 394.82715387 -102.73388662 394.82715387 -104.67675781 394.23486328 C-108.71383591 392.79271631 -112.09083132 390.74522091 -115.53222656 388.20751953 C-116.12745117 387.77286377 -116.72267578 387.33820801 -117.3359375 386.89038086 C-141.28462712 369.0363987 -158.87592674 342.97951613 -163.59472656 313.14501953 C-163.88790957 311.08180388 -164.17659984 309.01921204 -164.4375 306.95166016 C-165.05086782 303.47738006 -165.98905887 300.06769029 -166.84472656 296.64501953 C-166.84472656 290.70501953 -166.84472656 284.76501953 -166.84472656 278.64501953 C-145.39472656 278.64501953 -123.94472656 278.64501953 -101.84472656 278.64501953 C-101.18472656 282.60501953 -100.52472656 286.56501953 -99.84472656 290.64501953 C-96.2646391 307.51454162 -90.03232431 322.6591749 -75.46972656 333.02001953 C-62.62391813 340.9148393 -48.45597466 342.02230216 -33.71972656 341.95751953 C-33.03497253 341.95469971 -32.35021851 341.95187988 -31.64471436 341.94897461 C-11.88209508 341.82670901 8.52291812 339.41871555 23.15527344 324.64501953 C25.09751308 322.13841819 25.09751308 322.13841819 26.46777344 319.58251953 C26.93828125 318.76654297 27.40878906 317.95056641 27.89355469 317.10986328 C29.14386379 314.66730896 30.18175868 312.20906545 31.15527344 309.64501953 C31.81527344 309.64501953 32.47527344 309.64501953 33.15527344 309.64501953 C33.21330094 305.06173931 33.24887937 300.47855349 33.28027344 295.89501953 C33.30541016 293.94208984 33.30541016 293.94208984 33.33105469 291.94970703 C33.34072266 290.07412109 33.34072266 290.07412109 33.35058594 288.16064453 C33.36629639 286.43249512 33.36629639 286.43249512 33.38232422 284.66943359 C33.15843885 281.68718425 32.61574831 280.18960816 31.15527344 277.64501953 C30.92839844 276.57251953 30.70152344 275.50001953 30.46777344 274.39501953 C27.02331592 264.55371233 18.28987805 259.33475948 9.41357422 254.71777344 C-1.80433659 249.38896262 -15.0642522 244.7233234 -27.40722656 243.20751953 C-30.44409147 242.710578 -32.54831243 242.01720729 -35.34472656 240.83251953 C-43.80555383 237.2836011 -52.82956648 235.38121252 -61.71972656 233.20751953 C-94.71606446 224.99174226 -125.46036488 213.1301795 -145.84472656 184.64501953 C-145.84472656 183.98501953 -145.84472656 183.32501953 -145.84472656 182.64501953 C-146.50472656 182.64501953 -147.16472656 182.64501953 -147.84472656 182.64501953 C-148.61600225 180.64519008 -149.38672306 178.64514662 -150.15722656 176.64501953 C-150.58648438 175.53126953 -151.01574219 174.41751953 -151.45800781 173.27001953 C-151.915625 172.07376953 -152.37324219 170.87751953 -152.84472656 169.64501953 C-153.09061523 169.0268335 -153.33650391 168.40864746 -153.58984375 167.77172852 C-155.64416821 162.51099222 -157.11759731 157.18698159 -158.46972656 151.70751953 C-158.68628906 150.86511719 -158.90285156 150.02271484 -159.12597656 149.15478516 C-164.43214016 127.88099963 -163.904938 102.68610799 -157.84472656 81.64501953 C-157.59803223 80.77699707 -157.35133789 79.90897461 -157.09716797 79.01464844 C-148.52351127 49.6410585 -131.76303043 25.07297327 -104.84472656 9.64501953 C-100.34689015 7.19560059 -96.0151598 5.17817831 -91.03222656 3.89501953 C-90.11828125 3.65267578 -89.20433594 3.41033203 -88.26269531 3.16064453 C-85.84472656 2.64501953 -85.84472656 2.64501953 -82.84472656 2.64501953 C-82.84472656 1.98501953 -82.84472656 1.32501953 -82.84472656 0.64501953 C-56.98835324 -6.79923383 -25.73005423 -7.73621981 0 0 Z " fill="#3264C9" transform="translate(1313.8447265625,768.35498046875)"/>
<path d="M0 0 C80.52 0 161.04 0 244 0 C244 67 244 67 236 78 C234.02694248 81.02722668 232.08703888 84.05358819 230.1875 87.125 C229.15182995 88.78174304 228.11535468 90.43798295 227.078125 92.09375 C226.56443359 92.91488281 226.05074219 93.73601562 225.52148438 94.58203125 C223.19215667 98.28383831 220.81862973 101.95636917 218.4375 105.625 C217.75977539 106.66998657 217.75977539 106.66998657 217.06835938 107.73608398 C215.71303461 109.82457352 214.35664213 111.91236602 213 114 C207.0373298 123.17960564 201.11419272 132.38210561 195.25 141.625 C189.77407618 150.25388807 184.21522276 158.82526343 178.61743164 167.37548828 C174.25391304 174.05030548 169.95493712 180.76341259 165.6875 187.5 C161.48109443 194.13924941 157.21582959 200.72635682 152.82470703 207.24462891 C148.51671111 213.66730032 144.39023509 220.20432877 140.2487793 226.73510742 C135.32068917 234.50547605 130.33726454 242.23823316 125.32666016 249.95556641 C123.04740649 253.46798271 120.77404706 256.9842115 118.5 260.5 C115.72731418 264.78564327 112.95418954 269.07100102 110.1796875 273.35546875 C105.2623359 280.95012101 100.35759986 288.55242145 95.47265625 296.16796875 C93.53511435 299.17911281 91.57994094 302.17845658 89.62109375 305.17578125 C89.03312012 306.07643311 88.44514648 306.97708496 87.83935547 307.9050293 C86.67484346 309.6876383 85.50856513 311.46909497 84.34033203 313.24926758 C83.80649902 314.0667749 83.27266602 314.88428223 82.72265625 315.7265625 C82.24578369 316.45439941 81.76891113 317.18223633 81.27758789 317.93212891 C80.06931262 319.88781236 79.02806876 321.94386248 78 324 C133.11 324 188.22 324 245 324 C245 347.1 245 370.2 245 394 C162.83 394 80.66 394 -4 394 C-4 322 -4 322 12.5 296.5 C13.01409424 295.70529297 13.52818848 294.91058594 14.05786133 294.09179688 C16.22805386 290.73702817 18.39962195 287.38316571 20.57421875 284.03125 C25.99831778 275.66620202 31.38317779 267.27691914 36.75 258.875 C42.56374419 249.77534601 48.4340977 240.71502208 54.34570312 231.67871094 C59.71345132 223.46340336 65.00711637 215.20183038 70.28979492 206.93164062 C75.39889153 198.93381147 80.5403406 190.95775429 85.70556641 182.99609375 C87.97322054 179.49923592 90.23631939 175.99943083 92.5 172.5 C95.27270637 168.21437002 98.04581046 163.92899899 100.8203125 159.64453125 C105.42576392 152.5316674 110.02411835 145.41445778 114.60180664 138.28369141 C117.85990043 133.2110988 121.13990978 128.15283344 124.41967773 123.09423828 C127.95902754 117.62714729 131.46763839 112.14081005 134.97143555 106.65087891 C141.54078239 96.35928568 148.1725631 86.12207215 155 76 C156.32 74.02 157.64 72.04 159 70 C106.53 70 54.06 70 0 70 C0 46.9 0 23.8 0 0 Z " fill="#CACACA" transform="translate(687,352)"/>
<path d="M0 0 C75.24 0 150.48 0 228 0 C228 22.77 228 45.54 228 69 C174.54 69 121.08 69 66 69 C66 99.03 66 129.06 66 160 C112.86 160 159.72 160 208 160 C208 182.11 208 204.22 208 227 C161.14 227 114.28 227 66 227 C66 281.45 66 335.9 66 392 C44.22 392 22.44 392 0 392 C0 262.64 0 133.28 0 0 Z " fill="#3265CB" transform="translate(149,776)"/>
<path d="M0 0 C75.24 0 150.48 0 228 0 C228 22.77 228 45.54 228 69 C174.54 69 121.08 69 66 69 C66 99.03 66 129.06 66 160 C112.86 160 159.72 160 208 160 C208 182.11 208 204.22 208 227 C161.14 227 114.28 227 66 227 C66 281.45 66 335.9 66 392 C44.22 392 22.44 392 0 392 C0 262.64 0 133.28 0 0 Z " fill="#656565" transform="translate(149,353)"/>
<path d="M0 0 C22.11 0 44.22 0 67 0 C67 106.59 67 213.18 67 323 C119.8 323 172.6 323 227 323 C227 346.1 227 369.2 227 393 C152.09 393 77.18 393 0 393 C0 263.31 0 133.62 0 0 Z " fill="#3265CA" transform="translate(541,775)"/>
<path d="M0 0 C22.11 0 44.22 0 67 0 C67 130.02 67 260.04 67 394 C44.89 394 22.78 394 0 394 C0 263.98 0 133.96 0 0 Z " fill="#3264C9" transform="translate(418,775)"/>
<path d="M0 0 C0.66 0 1.32 0 2 0 C2.96418334 3.4567288 3.92023933 6.91565787 4.875 10.375 C5.14441406 11.34050781 5.41382813 12.30601562 5.69140625 13.30078125 C6.95774813 17.90285297 8.13025944 22.47106133 9.0078125 27.1640625 C9.60610706 30.3170935 10.36853429 33.2598795 11.4375 36.28515625 C13.50737965 42.20485602 14.70107601 48.31158503 16 54.4375 C17.99404366 63.81054379 20.15600917 72.98653906 23.4375 82 C25.26435642 87.35622824 26.33000478 92.88221298 27.51708984 98.40625 C28.68099472 103.75241595 30.13635356 108.85471527 32 114 C33.8838682 119.5385725 35.19574897 124.88492851 36 130.6875 C36.50272847 134.29954066 36.98055718 137.45619635 38.5625 140.75 C40 144 40 144 41 153 C14.27 153 -12.46 153 -40 153 C-39.33780323 148.36462258 -38.63239954 144.1456033 -37.51171875 139.6484375 C-37.21716797 138.46636719 -36.92261719 137.28429687 -36.61914062 136.06640625 C-36.31169922 134.84824219 -36.00425781 133.63007812 -35.6875 132.375 C-35.39166016 131.18003906 -35.09582031 129.98507812 -34.79101562 128.75390625 C-33.03100416 121.73666829 -31.05338559 114.83066858 -28.88598633 107.92919922 C-27.53446601 103.46087715 -26.5409573 98.93953831 -25.578125 94.375 C-24.69546947 90.40305009 -23.54673077 86.68355717 -22.09765625 82.87890625 C-19.61915482 76.24354808 -18.03556935 69.45394963 -16.4375 62.5625 C-15.85330562 60.0845314 -15.26867481 57.60666564 -14.68359375 55.12890625 C-14.40241699 53.93668457 -14.12124023 52.74446289 -13.83154297 51.51611328 C-13.55713379 50.3557959 -13.28272461 49.19547852 -13 48 C-12.73203613 46.8641748 -12.46407227 45.72834961 -12.18798828 44.55810547 C-11.93130371 43.4960791 -11.67461914 42.43405273 -11.41015625 41.33984375 C-11.18593994 40.40390381 -10.96172363 39.46796387 -10.73071289 38.50366211 C-10 36 -10 36 -8.9699707 33.94897461 C-7.88629789 31.77153689 -7.48383111 29.86980764 -7.0703125 27.4765625 C-5.98308941 21.68300385 -4.45853214 16.04995489 -2.875 10.375 C-2.59785156 9.37082031 -2.32070313 8.36664063 -2.03515625 7.33203125 C-1.35989931 4.88713545 -0.68147179 2.44316934 0 0 Z " fill="#030303" transform="translate(509,444)"/>
<path d="M0 0 C32.01 0 64.02 0 97 0 C97 130.02 97 260.04 97 394 C76.54 394 56.08 394 35 394 C33.29553305 392.29553305 33.86757619 390.1016773 33.8613348 387.77007198 C33.85586036 386.62901058 33.85038591 385.48794918 33.84474558 384.31231016 C33.84376747 383.04288291 33.84278936 381.77345566 33.84178162 380.46556091 C33.83721992 379.11588663 33.83222048 377.76621377 33.82681805 376.41654259 C33.81318279 372.69049041 33.80580308 368.9644474 33.79939139 365.23837674 C33.79141099 361.22675757 33.77770516 357.21515763 33.76467896 353.20355225 C33.74288258 346.24744199 33.7247497 339.29132981 33.70907402 332.33520317 C33.6864041 322.2776937 33.65825734 312.22020549 33.62875474 302.16271401 C33.58104345 285.84684801 33.53778889 269.53097333 33.49731445 253.21508789 C33.45797749 237.36156539 33.41655561 221.50805062 33.37231445 205.65454102 C33.36959018 204.67805619 33.36686591 203.70157135 33.36405908 202.69549607 C33.3503799 197.79697531 33.33665957 192.89845467 33.32291877 187.99993408 C33.20889845 147.33330545 33.10210143 106.66666019 33 66 C33.99 66.33 34.98 66.66 36 67 C36 174.25 36 281.5 36 392 C55.8 392 75.6 392 96 392 C96 262.97 96 133.94 96 1 C64.32 1 32.64 1 0 1 C0 0.67 0 0.34 0 0 Z " fill="#254B96" transform="translate(1019,775)"/>
<path d="M0 0 C10.58405509 21.16811019 0.34295915 47.33581841 0 71 C81.18 71 162.36 71 246 71 C246 48.89 246 26.78 246 4 C191.55 4 137.1 4 81 4 C81 3.67 81 3.34 81 3 C136.11 3 191.22 3 248 3 C248 26.1 248 49.2 248 73 C165.83 73 83.66 73 -1 73 C-1 1 -1 1 0 0 Z " fill="#939393" transform="translate(684,673)"/>
<path d="M0 0 C2.83602241 2.83602241 3.00302479 6.06486708 3.6875 9.875 C3.82994141 10.59558594 3.97238281 11.31617188 4.11914062 12.05859375 C4.8265585 15.88076195 4.95931784 18.16272864 4 22 C3.34 19.36 2.68 16.72 2 14 C1.67 115.97 1.34 217.94 1 323 C0.67 323 0.34 323 0 323 C0 216.41 0 109.82 0 0 Z " fill="#0D1C39" transform="translate(868,846)"/>
<path d="M0 0 C0.99 0.33 1.98 0.66 3 1 C3 18.16 3 35.32 3 53 C2.67 53 2.34 53 2 53 C1.67 37.16 1.34 21.32 1 5 C0.67 5 0.34 5 0 5 C0 3.35 0 1.7 0 0 Z " fill="#2C5AB5" transform="translate(1052,841)"/>
<path d="M0 0 C0.66 0.33 1.32 0.66 2 1 C-3.03320206 6.77505724 -8.03739811 12.17917294 -14 17 C-14 14 -14 14 -12.71484375 12.37426758 C-12.12832031 11.80345459 -11.54179688 11.2326416 -10.9375 10.64453125 C-10.30585937 10.02255859 -9.67421875 9.40058594 -9.0234375 8.75976562 C-8.35570312 8.11716797 -7.68796875 7.47457031 -7 6.8125 C-6.33226562 6.15830078 -5.66453125 5.50410156 -4.9765625 4.83007812 C-3.32421559 3.21313865 -1.66528399 1.60359509 0 0 Z " fill="#2750A1" transform="translate(1194,788)"/>
<path d="M0 0 C2.7148572 2.7148572 2.56982071 4.79081229 3.0625 8.5625 C3.2690002 12.60429852 3.2690002 12.60429852 5 16 C5.07205511 17.68608966 5.08386068 19.37500659 5.0625 21.0625 C5.05347656 21.98160156 5.04445313 22.90070312 5.03515625 23.84765625 C5.02355469 24.55792969 5.01195312 25.26820313 5 26 C4.67 26 4.34 26 4 26 C2.14289913 17.34520917 0.53411786 8.85898937 0 0 Z " fill="#1A346A" transform="translate(885,935)"/>
<path d="M0 0 C1.08731843 4.34927371 0.70957987 6.33323333 -0.3125 10.625 C-0.70888672 12.34589844 -0.70888672 12.34589844 -1.11328125 14.1015625 C-2 17 -2 17 -4 19 C-4.33 16.03 -4.66 13.06 -5 10 C-4.01 10.33 -3.02 10.66 -2 11 C-1.34 7.37 -0.68 3.74 0 0 Z " fill="#0F1F40" transform="translate(965,1062)"/>
<path d="M0 0 C3.63187878 6.48549783 4.29667051 12.73157242 4 20 C-0.01984912 13.97022631 -0.25729264 7.07554765 0 0 Z " fill="#183266" transform="translate(890,962)"/>
<path d="M0 0 C-1.28519565 2.86697492 -2.57129254 4.97607712 -5 7 C-5.66 7 -6.32 7 -7 7 C-3.86206897 0 -3.86206897 0 0 0 Z " fill="#0D1B37" transform="translate(1231,845)"/>
<path d="M0 0 C0.99 0.33 1.98 0.66 3 1 C3 3.97 3 6.94 3 10 C2.67 10 2.34 10 2 10 C1.67 8.35 1.34 6.7 1 5 C0.67 5 0.34 5 0 5 C0 3.35 0 1.7 0 0 Z " fill="#2954AA" transform="translate(1052,841)"/>
</svg>
